<?xml version="1.0" standalone="no"?>
<!DOCTYPE svg PUBLIC "-//W3C//DTD SVG 20010904//EN"
 "http://www.w3.org/TR/2001/REC-SVG-20010904/DTD/svg10.dtd">
<svg version="1.0" xmlns="http://www.w3.org/2000/svg"
 width="201.000000pt" height="201.000000pt" viewBox="0 0 201.000000 201.000000"
 preserveAspectRatio="xMidYMid meet">
<metadata>
Created by potrace 1.11, written by Peter Selinger 2001-2013
</metadata>
<g transform="translate(0.000000,201.000000) scale(0.100000,-0.100000)"
fill="#000000" stroke="none">
<path d="M530 1843 c-256 -91 -466 -166 -466 -167 -6 -5 144 -1238 151 -1244
17 -16 774 -432 785 -432 6 0 186 97 400 216 295 163 391 222 395 238 2 11 34
280 70 596 36 316 67 586 69 600 4 25 -3 28 -457 189 -254 90 -466 165 -472
167 -5 2 -219 -72 -475 -163z"/>
</g>
</svg>
